<svg xmlns="http://www.w3.org/2000/svg" version="1.1" xmlns:xlink="http://www.w3.org/1999/xlink" xmlns:svgjs="http://svgjs.dev/svgjs" width="2000" height="651" viewBox="0 0 2000 651"><g transform="matrix(1,0,0,1,-1.2121212121212466,-0.5144570452933408)"><svg viewBox="0 0 396 129" data-background-color="#ede1d1" preserveAspectRatio="xMidYMid meet" height="651" width="2000" xmlns="http://www.w3.org/2000/svg" xmlns:xlink="http://www.w3.org/1999/xlink"><g id="tight-bounds" transform="matrix(1,0,0,1,0.2400000000000091,0.10194310114107452)"><svg viewBox="0 0 395.52 128.79592442435487" height="128.79592442435487" width="395.52"><g><svg viewBox="0 0 395.52 128.79592442435487" height="128.79592442435487" width="395.52"><g><svg viewBox="0 0 677.5173367191005 220.62467560746225" height="128.79592442435487" width="395.52"><g transform="matrix(1,0,0,1,281.9973367191005,45.319855391670814)"><svg viewBox="0 0 395.52 129.98496482412062" height="129.98496482412062" width="395.52"><g id="textblocktransform"><svg viewBox="0 0 395.52 129.98496482412062" height="129.98496482412062" width="395.52" id="textblock"><g><svg viewBox="0 0 395.52 129.98496482412062" height="129.98496482412062" width="395.52"><g transform="matrix(1,0,0,1,0,0)"><svg width="395.52" viewBox="1.25 -36.55 149.24 49.05" height="129.98496482412062" data-palette-color="#6a704c"><path d="M32.25-34.05L29.5-34.05 29.5 0 22.5 0 5.35-32.35 5.35-0.95 8.1-0.95 8.1 0 1.25 0 1.25-0.95 4-0.95 4-34.05 1.25-34.05 1.25-35 15.05-35 28.15-9.9 28.15-34.05 25.4-34.05 25.4-35 32.25-35 32.25-34.05ZM45.25-11.75L45.25-11.75 46.7-11.75 46.7-15.6Q46.7-20.35 46.17-21.98 45.65-23.6 44.15-23.6L44.15-23.6Q43.25-23.6 42.52-23.13 41.8-22.65 41.8-21.83 41.8-21 42.1-20.15L42.1-20.15 43.35-20.15Q43.75-19.1 43.75-17.63 43.75-16.15 42.5-15.08 41.25-14 39.35-14L39.35-14Q35.05-14 35.05-18.15L35.05-18.15Q35.05-24.3 45.5-24.3L45.5-24.3Q51.45-24.3 53.72-22.28 56-20.25 56-14.85L56-14.85 56-4.7Q56-2.1 57.45-2.1L57.45-2.1Q59.15-2.1 59.45-7.25L59.45-7.25 60.2-7.2Q60-2.8 58.55-1.15 57.1 0.5 53.8 0.5L53.8 0.5Q47.8 0.5 46.9-3.2L46.9-3.2Q46.25-1.3 44.95-0.4 43.65 0.5 41.15 0.5L41.15 0.5Q33.75 0.5 33.75-5.55L33.75-5.55Q33.75-9.1 36.57-10.43 39.4-11.75 45.25-11.75ZM43.25-5.6Q43.25-3 43.52-2.25 43.8-1.5 44.57-1.5 45.35-1.5 46.02-2.78 46.7-4.05 46.7-6.3L46.7-6.3 46.7-10.95 46.35-10.95Q43.25-10.95 43.25-6.4L43.25-6.4 43.25-5.6ZM59.25-22.9L57.2-22.9 57.2-23.8 72.15-23.8 72.15-22.9 69-22.9 75-6.3 80.4-22.9 77.05-22.9 77.05-23.8 83.8-23.8 83.8-22.9 81.6-22.9 74.2 0 68.5 0 59.25-22.9ZM91.64-27.25Q88.99-27.25 87.87-28.6 86.74-29.95 86.74-31.95 86.74-33.95 87.97-35.25 89.19-36.55 91.69-36.55 94.19-36.55 95.49-35.38 96.79-34.2 96.79-32.02 96.79-29.85 95.54-28.55 94.29-27.25 91.64-27.25ZM84.09-22.9L84.09-23.8 96.34-23.8 96.34-0.9 99.14-0.9 99.14 0 84.29 0 84.29-0.9 87.04-0.9 87.04-22.9 84.09-22.9ZM120.19-26.4L120.19-26.4 121.59-27.25Q121.89-28.8 120.39-28.8L120.39-28.8Q118.24-28.8 118.24-25.5L118.24-25.5Q118.24-24.2 118.59-22.5L118.59-22.5Q122.39-19.95 122.39-15.98 122.39-12 119.64-9.8 116.89-7.6 112.19-7.6L112.19-7.6Q110.24-7.6 108.14-8L108.14-8Q105.94-6.6 105.94-5.9 105.94-5.2 109.14-5.2L109.14-5.2 114.24-5.2Q125.59-5.2 125.59 2.95L125.59 2.95Q125.59 7.35 122.17 9.93 118.74 12.5 111.49 12.5L111.49 12.5Q99.14 12.5 99.14 7.15L99.14 7.15Q99.14 4.25 102.99 3.15L102.99 3.15 105.99 4.5Q105.59 5.95 105.59 7.25L105.59 7.25Q105.59 11.55 111.99 11.55L111.99 11.55Q115.89 11.55 117.99 10.1 120.09 8.65 120.09 6.5 120.09 4.35 118.82 3.63 117.54 2.9 113.74 2.9L113.74 2.9 108.89 2.9Q104.84 2.9 103.09 1.55 101.34 0.2 101.34-1.78 101.34-3.75 102.59-5.08 103.84-6.4 107.04-8.35L107.04-8.35Q101.24-10 101.24-15.95L101.24-15.95Q101.24-19.7 103.94-22 106.64-24.3 112.04-24.3L112.04-24.3Q115.29-24.3 117.59-23.05L117.59-23.05Q117.29-24.4 117.29-25.5L117.29-25.5Q117.29-28.3 118.79-29.55 120.29-30.8 122.14-30.8 123.99-30.8 125.12-29.83 126.24-28.85 126.24-27.15 126.24-25.45 125.34-24.63 124.44-23.8 123.17-23.8 121.89-23.8 121.07-24.48 120.24-25.15 120.19-26.4ZM109.59-17.05L109.59-17.05 109.59-14.35Q109.59-11 110.17-9.8 110.74-8.6 111.92-8.6 113.09-8.6 113.62-9.78 114.14-10.95 114.14-14.6L114.14-14.6 114.14-17.05Q114.14-20.95 113.64-22.18 113.14-23.4 111.97-23.4 110.79-23.4 110.19-22.13 109.59-20.85 109.59-17.05ZM140.89-9.85L140.89-9.85 140.89-14.1Q140.89-18.95 140.36-21.18 139.84-23.4 137.94-23.4L137.94-23.4Q136.84-23.4 136.16-22.78 135.49-22.15 135.19-20.7L135.19-20.7Q134.74-18.45 134.74-13.85L134.74-13.85 134.74-9.95Q134.74-4.5 135.06-3.4 135.39-2.3 135.74-1.6L135.74-1.6Q136.29-0.4 137.89-0.4L137.89-0.4Q139.84-0.4 140.44-2.65L140.44-2.65Q140.89-4.25 140.89-9.85ZM137.79 0.5Q131.54 0.5 128.34-2.7 125.14-5.9 125.14-11.88 125.14-17.85 128.56-21.08 131.99-24.3 138.19-24.3 144.39-24.3 147.44-21.33 150.49-18.35 150.49-12.25L150.49-12.25Q150.49 0.5 137.79 0.5L137.79 0.5Z" opacity="1" transform="matrix(1,0,0,1,0,0)" fill="#6a704c" class="wordmark-text-0" data-fill-palette-color="primary" id="text-0"></path></svg></g></svg></g></svg></g></svg></g><g><svg viewBox="0 0 220.62467560746225 220.62467560746225" height="220.62467560746225" width="220.62467560746225"><g><svg></svg></g><g id="icon-0"><svg viewBox="0 0 220.62467560746225 220.62467560746225" height="220.62467560746225" width="220.62467560746225"><g><path d="M0 110.312c0-60.924 49.389-110.312 110.312-110.312 60.924 0 110.312 49.389 110.313 110.312 0 60.924-49.389 110.312-110.313 110.313-60.924 0-110.312-49.389-110.312-110.313zM110.312 208.903c54.45 0 98.59-44.14 98.591-98.591 0-54.45-44.14-98.59-98.591-98.59-54.45 0-98.59 44.14-98.59 98.59 0 54.45 44.14 98.59 98.59 98.591z" data-fill-palette-color="accent" fill="#6b493c" stroke="transparent"></path></g><g transform="matrix(1,0,0,1,52.6300118762063,63.40779947559674)"><svg viewBox="0 0 115.36465185504966 93.80907665626877" height="93.80907665626877" width="115.36465185504966"><g><svg version="1.1" xmlns="http://www.w3.org/2000/svg" xmlns:xlink="http://www.w3.org/1999/xlink" x="0" y="0" viewBox="0 0.000023547353283989367 99.99841080178062 81.31397645264671" enable-background="new 0 0 100 81.314" xml:space="preserve" id="dxe-0" width="115.36465185504966" height="93.80907665626877" class="icon-dxe-0" data-fill-palette-color="accent"><path fill="#6b493c" d="M39.74 2.399L39.485 1.299A52 52 0 0 1 43.975 0.469L44.133 1.59A51 51 0 0 0 39.74 2.399" data-fill-palette-color="accent"></path><path fill="#6b493c" d="M61.917 2.333A47 47 0 0 0 57.514 1.556L57.664 0.434C59.179 0.629 60.691 0.898 62.161 1.229z" data-fill-palette-color="accent"></path><path fill="#6b493c" d="M48.589 1.184L48.536 0.055A53 53 0 0 1 53.108 0.044L53.066 1.176A51 51 0 0 0 48.589 1.184" data-fill-palette-color="accent"></path><path fill="#6b493c" d="M7.252 77.205A51 51 0 0 0 9.777 81.014L10.691 80.345A49 49 0 0 1 8.218 76.623z" data-fill-palette-color="accent"></path><path fill="#6b493c" d="M3.267 68.983A50 50 0 0 0 5.073 73.182L6.088 72.689A51 51 0 0 1 4.322 68.587z" data-fill-palette-color="accent"></path><path fill="#6b493c" d="M0.826 60.179A51 51 0 0 0 1.848 64.634L2.938 64.333A50 50 0 0 1 1.938 59.975z" data-fill-palette-color="accent"></path><path fill="#6b493c" d="M1.13 51.082H0C0.002 52.6 0.073 54.136 0.21 55.651L1.335 55.549A50 50 0 0 1 1.13 51.082" data-fill-palette-color="accent"></path><path fill="#6b493c" d="M1.906 42.183L0.793 41.983A52 52 0 0 0 0.193 46.518L1.318 46.614C1.449 45.129 1.645 43.637 1.906 42.183" data-fill-palette-color="accent"></path><path fill="#6b493c" d="M4.255 33.562L3.196 33.169A52 52 0 0 0 1.794 37.518L2.885 37.817C3.274 36.398 3.736 34.967 4.255 33.562" data-fill-palette-color="accent"></path><path fill="#6b493c" d="M8.117 25.509L7.145 24.932A51 51 0 0 0 4.985 28.963L6.004 29.448A50 50 0 0 1 8.117 25.509" data-fill-palette-color="accent"></path><path fill="#6b493c" d="M9.661 21.114L10.576 21.776A51 51 0 0 1 13.358 18.276L12.505 17.533A50 50 0 0 0 9.661 21.114" data-fill-palette-color="accent"></path><path fill="#6b493c" d="M19.088 11.207A51 51 0 0 0 15.655 14.217L16.437 15.038A49 49 0 0 1 19.794 12.089z" data-fill-palette-color="accent"></path><path fill="#6b493c" d="M86.074 14.006A53 53 0 0 0 82.627 11.008L81.92 11.896A50 50 0 0 1 85.299 14.826z" data-fill-palette-color="accent"></path><path fill="#6b493c" d="M27.234 7.137L26.694 6.148A50 50 0 0 0 22.778 8.505L23.406 9.441A51 51 0 0 1 27.234 7.137" data-fill-palette-color="accent"></path><path fill="#6b493c" d="M78.917 8.329A51 51 0 0 0 74.982 5.993L74.454 6.99C75.764 7.69 77.059 8.46 78.3 9.272z" data-fill-palette-color="accent"></path><path fill="#6b493c" d="M35.434 3.599L35.08 2.527A50 50 0 0 0 30.808 4.148L31.254 5.186A51 51 0 0 1 35.434 3.599" data-fill-palette-color="accent"></path><path fill="#6b493c" d="M70.862 4.023A53 53 0 0 0 66.574 2.43L66.229 3.507C67.652 3.962 69.06 4.488 70.42 5.066z" data-fill-palette-color="accent"></path><path fill="#6b493c" d="M99.129 26.774L96.413 24.063 97.53 14.826 96.289 13.596 93.092 20.735 91.242 18.889A1.5 1.5 0 0 0 90.633 18.528L91.257 15.445 90.265 14.452 88.789 17.909 85.334 19.383 86.323 20.377 89.41 19.753C89.485 19.982 89.609 20.199 89.772 20.363L91.622 22.213 84.478 25.414 85.705 26.65 94.95 25.538 97.657 28.249A2.92 2.92 0 0 0 99.53 29.116 0.48 0.48 0 0 0 99.869 28.992 0.45 0.45 0 0 0 99.998 28.657 2.95 2.95 0 0 0 99.129 26.774" data-fill-palette-color="accent"></path><path fill="#6b493c" d="M51.09 15.112C32.837 15.112 17.989 29.96 17.989 48.213 17.989 66.464 32.837 81.314 51.09 81.314 69.341 81.314 84.191 66.464 84.191 48.213 84.191 29.96 69.341 15.112 51.09 15.112M78.073 53.609C78.674 54.216 78.943 54.776 79.064 55.383 75.867 67.848 64.537 77.089 51.09 77.089A28.7 28.7 0 0 1 37.331 73.595C37.372 73.416 37.412 73.234 37.452 73.04 37.696 71.863 39.515 71.298 40.296 70.519 41.057 69.757 42.571 69.296 43.041 68.3 43.349 67.647 42.913 66.81 43.175 66.201 43.374 65.743 44.133 65.244 44.489 64.887 45.383 63.993 46.053 61.667 46.053 60.445H42.041C40.774 60.445 41.02 58.947 41.015 58.016 41.014 57.516 41.046 56.905 40.803 56.448 40.526 55.928 39.629 56.08 39.148 55.836 38.311 55.411 37.617 54.579 37.453 53.644 37.345 53.031 37.367 52.582 36.596 52.612 35.838 52.644 35.134 53.251 34.429 53.251H25.905C25.905 53.568 25.725 54.6 26.014 54.745 26.737 55.105 27.459 55.467 28.181 55.828 29.259 56.368 29.575 57.717 30.102 58.769 30.62 59.805 31.207 60.823 31.661 61.885 32.223 63.199 32.631 64.662 33.654 65.718 34.085 66.163 34.921 66.072 35.104 66.685 35.336 67.455 35.097 68.395 34.92 69.153 34.724 69.992 34.478 70.821 34.261 71.655 28.295 67.359 24.032 60.848 22.68 53.336 23.082 53.305 23.485 53.251 23.719 53.251 24.499 53.251 24.523 53.193 25.088 52.63 25.583 52.135 25.905 51.988 25.905 51.306V48.934C26.865 49.413 27.823 49.894 28.783 50.372 28.825 49.209 29.656 49.06 30.614 48.899 31.752 48.711 32.501 47.494 33.555 47.494 34.424 47.494 34.785 47.66 35.601 47.924 36.029 48.065 36.566 48.228 37.013 48.089 37.614 47.901 37.472 46.828 37.68 46.346 37.979 45.649 38.434 44.663 39.24 44.596 40.116 44.526 41.252 44.131 40.296 43.177 39.247 42.128 38.463 40.79 37.754 39.497 37.451 38.942 37.375 38.067 36.864 37.684 35.748 36.846 34.072 37.982 33.234 38.734 32.763 39.159 33.502 40.136 32.855 40.409 31.803 40.855 30.43 41.213 29.344 40.694 28.752 40.411 28.386 39.717 27.714 39.593 27.25 39.509 27.344 39.379 27.344 38.859V36.228C27.344 35.864 27.445 36.007 27.776 35.912 29.079 35.538 28.31 33.842 29.601 33.821 31.098 33.796 29.62 31.245 29.215 30.725 28.988 30.433 28.762 30.302 28.515 30.243 33.81 23.605 41.959 19.34 51.091 19.34 59.402 19.34 66.9 22.874 72.173 28.513 70.621 30.199 68.953 32.118 67.819 32.969 67.041 33.552 66.033 33.906 65.164 34.34 64.297 34.775 63.121 34.542 62.171 34.542 61.924 34.542 59.006 34.502 59.006 34.578 59.006 35.443 59.439 37.203 58.604 37.622 57.607 38.12 56.488 38.5 55.695 39.291 55.47 39.516 54.549 40.158 54.814 40.424L54.818 40.427A0.9 0.9 0 0 0 54.369 40.304C53.24 40.342 51.839 40.39 50.855 41.012 50.231 41.406 50.4 42.002 50.317 42.657 50.223 43.393 49.992 44.172 49.463 44.717 48.831 45.369 48.932 45.476 48.932 46.534 50.051 46.41 51.172 46.285 52.294 46.162 52.426 46.144 53.249 46.14 53.249 45.993 53.249 45.715 53.092 44.773 53.283 44.582L54.563 43.302C54.822 43.043 55.293 43.782 55.505 43.995 55.895 44.384 56.276 44.467 55.862 44.877 55.471 45.271 55.078 45.664 54.687 46.055 54.861 46.055 56.124 46.102 56.127 46.022 56.178 44.948 56.828 43.914 57.565 43.177 58.361 42.381 59.452 42.372 60.31 43.06 60.657 43.34 60.444 44.239 60.444 44.616 60.444 44.869 60.374 47.494 60.506 47.494 61.139 47.494 61.691 47.64 62.176 47.229 63.843 45.826 66.024 46.162 67.64 44.616L69.079 47.494C67.936 47.876 66.792 48.256 65.649 48.637 65.559 48.666 64.787 48.983 64.747 48.906 64.486 48.393 64.208 47.867 63.853 47.411 63.381 46.804 63.263 47.331 63.356 47.889 63.507 48.811 64.092 49.674 64.727 50.34 65.393 51.038 65.766 52.383 66.2 53.252 66.11 51.483 68.685 54.297 69.079 54.69L70.906 52.864 71.811 51.959C72.055 51.714 71.783 51.644 71.595 51.38 70.579 49.96 73.188 50.373 73.981 50.373 75.479 50.373 76.618 50.764 77.713 51.812 76.322 51.74 77.753 53.287 78.073 53.609" data-fill-palette-color="accent"></path><path fill="#6b493c" d="M52.289 37.419C51.971 37.739 51.649 38.058 51.331 38.379 51.003 38.499 50.461 38.522 50.441 38.9 50.417 39.367 50.396 39.831 50.371 40.298L52.251 39.359C52.451 39.258 52.289 37.697 52.289 37.419" data-fill-palette-color="accent"></path><path fill="#6b493c" d="M55.143 35.98C55.5 35.98 56.127 36.18 56.127 35.755V35.728C56.196 35.865 56.32 35.951 56.513 35.969 56.398 36.453 56.272 36.937 56.127 37.42L57.44 36.106C57.734 35.812 57.565 35.076 57.565 34.686V31.663A7 7 0 0 1 57.433 31.911C57.415 31.708 57.406 31.509 57.385 31.304L57.218 32.31C56.85 32.998 56.321 34.043 56.126 34.844V31.664C55.836 32.244 53.612 35.98 55.143 35.98" data-fill-palette-color="accent"></path><path fill="#6b493c" d="M68.034 58.973C68.974 58.816 69.839 58.217 70.519 57.568L67.32 56.502C66.126 56.104 66.123 55.975 65.545 54.816 65.092 53.907 64.779 53.267 64.074 52.562 63.559 52.047 61.884 50.902 61.884 50.147 61.884 48.998 62.107 48.933 61.031 48.933H50.371C49.501 49.815 48.657 50.774 48.018 51.839 46.881 53.734 48.303 54.681 49.548 56.044 50.88 57.501 50.364 59.975 52.856 60.412 53.745 60.566 54.75 60.445 55.65 60.445 55.757 60.445 57.73 60.167 57.54 59.821 57.749 60.196 57.634 61.238 57.708 61.693 57.877 62.714 58.098 63.728 58.324 64.737 58.591 65.94 59.007 67.127 59.007 68.361 59.007 69.63 60.328 70.401 61.196 71.27 61.526 71.6 61.715 71.958 62.184 71.958H64.622C65.026 71.958 64.272 66.966 65.551 66.335 65.916 66.155 66.638 66.356 66.854 65.939 67.003 65.656 66.84 65.308 66.989 65.026 67.347 64.336 68.192 65.01 68.274 63.874 68.338 62.952 68.175 61.049 67.525 60.319 66.734 59.431 66.98 59.15 68.034 58.973" data-fill-palette-color="accent"></path><path fill="#6b493c" d="M46.035 28.767A18 18 0 0 0 43.668 26.771C42.525 25.977 41.664 25.906 40.296 25.906 39.642 25.906 38.975 25.861 38.323 25.914 38.042 25.937 38.151 26.251 38.07 26.459 37.579 27.715 35.538 29.224 34.539 30.223 35.921 30.223 36.692 33.09 37.216 34.138 37.531 34.767 37.418 35.421 37.418 36.124 37.418 37.153 37.329 37.331 38.04 38.042 38.746 38.748 38.686 39.031 39.383 38.334L41.484 36.233C41.944 35.771 41.735 35.023 41.735 34.397 41.735 33.473 41.407 33.102 42.342 33.102 43.06 33.102 43.734 33.166 44.312 32.67 44.75 32.292 45.091 31.816 45.693 31.697 46.361 31.565 47.773 31.326 47.491 30.223 47.377 29.776 46.377 29.105 46.035 28.767" data-fill-palette-color="accent"></path></svg></g></svg></g></svg></g></svg></g></svg></g></svg></g><defs></defs></svg><rect width="395.52" height="128.79592442435487" fill="none" stroke="none" visibility="hidden"></rect></g></svg></g></svg>